<?xml version="1.0" encoding="UTF-8" standalone="no"?>
<!-- Generator: Adobe Illustrator 17.0.0, SVG Export Plug-In . SVG Version: 6.00 Build 0)  -->

<svg
   xmlns:dc="http://purl.org/dc/elements/1.1/"
   xmlns:cc="http://creativecommons.org/ns#"
   xmlns:rdf="http://www.w3.org/1999/02/22-rdf-syntax-ns#"
   xmlns:svg="http://www.w3.org/2000/svg"
   xmlns="http://www.w3.org/2000/svg"
   xmlns:sodipodi="http://sodipodi.sourceforge.net/DTD/sodipodi-0.dtd"
   xmlns:inkscape="http://www.inkscape.org/namespaces/inkscape"
   version="1.1"
   id="Layer_1"
   x="0px"
   y="0px"
   width="603"
   height="238"
   viewBox="0 0 603 238"
   enable-background="new 0 0 300 70"
   xml:space="preserve"
   sodipodi:docname="1.svg"
   inkscape:version="0.92.4 (5da689c313, 2019-01-14)"><metadata
   id="metadata497"><rdf:RDF><cc:Work
       rdf:about=""><dc:format>image/svg+xml</dc:format><dc:type
         rdf:resource="http://purl.org/dc/dcmitype/StillImage" /><dc:title></dc:title></cc:Work></rdf:RDF></metadata><defs
   id="defs495">
	
	
	
	
	
	
	
	
	
	
	
	
	
	
	
	
	
	
	
	
	
	
	
	
	
	
	
	
	
	
		<radialGradient
   gradientUnits="userSpaceOnUse"
   gradientTransform="matrix(0.9848,-0.1735,0.1735,0.9848,56.804844,657.87483)"
   r="106.6231"
   cy="-291.31689"
   cx="541.37408"
   id="SVGID_1_">
		<stop
   id="stop92"
   style="stop-color:#FFFFFF"
   offset="0.1236" />
		<stop
   id="stop94"
   style="stop-color:#8C8C8C"
   offset="1" />
	</radialGradient>
	
	
	
	
	
	
		<radialGradient
   gradientUnits="userSpaceOnUse"
   gradientTransform="matrix(0.9624,-0.2715,0.2715,0.9624,65.495144,746.06833)"
   r="6.9215002"
   cy="-325.8237"
   cx="560.93127"
   id="SVGID_3_">
		<stop
   id="stop146"
   style="stop-color:#FFFFFF"
   offset="0.1236" />
		<stop
   id="stop148"
   style="stop-color:#8C8C8C"
   offset="1" />
	</radialGradient>
	
	
	
	
	
	
	
	
	
	
	
	
	
	
	
	
	
	
	
	
	
	
	
	
	
	
	
	
	
	
	
	
	
	
	
	
	
	
	
	
	
	
	
	
	
	
	
	
	
	
	
	
	
		<linearGradient
   gradientTransform="matrix(-1,0,0,1,-255.03846,500.97183)"
   y2="-423.56189"
   x2="-559.18402"
   y1="-434.9053"
   x1="-558.52948"
   gradientUnits="userSpaceOnUse"
   id="SVGID_4_">
		<stop
   id="stop353"
   style="stop-color:#FFFFFF"
   offset="0" />
		<stop
   id="stop355"
   style="stop-color:#DF5857"
   offset="1" />
	</linearGradient>
	
	
	
	
	
	
	
	
	
	
		<linearGradient
   gradientTransform="matrix(0.9972,0.0754,-0.0754,0.9972,14.7363,84.0929)"
   y2="-550.53809"
   x2="106.5903"
   y1="-494.5405"
   x1="106.5903"
   gradientUnits="userSpaceOnUse"
   id="SVGID_5_">
		<stop
   id="stop430"
   style="stop-color:#FFFFFF"
   offset="0" />
		<stop
   id="stop432"
   style="stop-color:#000000"
   offset="1" />
	</linearGradient>
	
	
		<linearGradient
   gradientTransform="matrix(1,0.0052,-0.0052,1,36.7043,168.5417)"
   y2="-635.38452"
   x2="225.9335"
   y1="-579.38342"
   x1="225.9335"
   gradientUnits="userSpaceOnUse"
   id="SVGID_6_">
		<stop
   id="stop437"
   style="stop-color:#FFFFFF"
   offset="0" />
		<stop
   id="stop439"
   style="stop-color:#000000"
   offset="1" />
	</linearGradient>
	
	
	
	
	
	
</defs><sodipodi:namedview
   pagecolor="#ffffff"
   bordercolor="#666666"
   borderopacity="1"
   objecttolerance="10"
   gridtolerance="10"
   guidetolerance="10"
   inkscape:pageopacity="0"
   inkscape:pageshadow="2"
   inkscape:window-width="2497"
   inkscape:window-height="1417"
   id="namedview493"
   showgrid="false"
   inkscape:zoom="1.3387888"
   inkscape:cx="33.352355"
   inkscape:cy="190.03949"
   inkscape:window-x="55"
   inkscape:window-y="-8"
   inkscape:window-maximized="1"
   inkscape:current-layer="Layer_1" />

<g
   id="g38"
   transform="translate(62.323944,204.97183)">
		<polyline
   id="polyline8"
   points="111.568,-40.862 114.295,-131.973 410.261,-117.617 382.076,-65 366.844,-30.202   " />
		<path
   inkscape:connector-curvature="0"
   id="path10"
   d="m 533.572,-199.137 -0.245,-0.317 -0.27,-0.296 c -3.536,-3.89 -8.709,-4.546 -18.966,-4.546 -12.616,0 -31.872,1.431 -39.505,2.917 -5.196,0.623 -8.521,1.114 -8.664,1.135 l -0.326,0.054 c -8.368,1.524 -11.983,11.675 -10.644,20.609 l 0.04,0.241 c 0.55,3.143 1.657,5.704 3.096,7.744 -0.946,-0.093 -1.905,-0.157 -2.889,-0.157 -7.531,0 -14.201,2.797 -18.556,7.37 -3.664,-3.593 -8.695,-6.148 -14.101,-7.065 -1.341,-0.241 -2.675,-0.363 -3.967,-0.363 -1.98,0 -3.811,0.284 -5.498,0.778 0.008,-0.109 0.015,-0.202 0.019,-0.261 0.282,-3.115 -0.759,-6.294 -2.952,-8.993 -3.773,-4.643 -10.887,-7.924 -18.582,-8.574 -0.952,-0.091 -1.89,-0.137 -2.788,-0.137 -8.252,0 -14.564,3.95 -17.318,10.837 l -0.715,1.788 v 0.979 c -0.028,0.136 -0.06,0.287 -0.094,0.453 -0.431,2.077 -1.22,5.884 -2.09,10.882 -1.563,-3.301 -2.86,-6.071 -3.787,-8.062 -3.443,-7.524 -5.74,-12.499 -5.74,-12.499 l -0.389,-0.843 -0.538,-0.757 c -4.83,-6.797 -14.703,-7.531 -18.724,-7.531 -12.291,0 -20.997,5.727 -22.515,14.684 -0.228,1.039 -0.3,2.527 -0.464,7.583 -2.414,-2.594 -5.17,-4.877 -8.299,-6.732 l -0.09,-0.053 c -5.387,-3.119 -11.506,-4.767 -17.697,-4.767 -12.564,0 -24.062,6.534 -30.94,17.505 -0.615,-1.253 -1.271,-2.482 -1.973,-3.682 -9.497,-16.23 -25.136,-25.169 -44.037,-25.169 -0.379,0 -0.76,0.004 -1.142,0.011 l -0.307,0.01 c -2.321,0.116 -4.348,0.243 -6.377,0.399 l -0.192,0.015 -0.192,0.022 c -17.523,2.034 -21.959,12.538 -23.036,22.721 l -0.355,-0.803 c -3.05,-6.895 -10.85,-10.849 -21.4,-10.849 -3.642,0 -12.698,0.531 -18.125,5.448 v 0 c -2.475,2.261 -5.836,8.008 -8.978,14.086 -2.645,-5.192 -4.654,-9.091 -5.261,-10.268 -3.424,-7.756 -14,-11.809 -22.971,-11.809 -10.848,0 -18.919,6.114 -20.613,15.593 -1.197,6 -2.165,12.094 -2.907,18.218 -2.964,-10.853 -5.265,-19.523 -5.656,-21 -2.101,-9.381 -11.67,-15.901 -23.417,-15.901 -9.508,0 -17.312,4.373 -20.861,11.67 -2.718,5.544 -5.717,14.901 -9.15,25.833 -0.461,-6.689 -1.15,-12.789 -1.708,-17.721 l -0.028,-0.228 c -0.351,-2.575 -0.773,-5.583 -1.352,-8.761 -1.67,-8.908 -9.587,-14.893 -19.7,-14.893 -12.124,0 -21.797,8.4 -22.5,19.54 l -0.02,0.315 v 0.315 c 0,6.011 0.459,12.447 0.903,18.67 0.034,0.477 0.068,0.955 0.103,1.434 -3.949,-2.22 -8.534,-3.406 -13.006,-3.406 -10.16,0 -18.343,5.779 -21.329,15 -2.087,6.26 -3.007,12.53 -2.81,19.158 -0.411,11.563 3.745,22.504 11.729,30.856 7.968,8.334 18.867,13.114 29.902,13.114 6.994,0 13.812,-1.96 19.718,-5.669 3.348,-2.066 6.176,-4.636 8.568,-7.585 3.051,3.646 7.73,6.797 13.551,8.805 2.863,0.987 5.619,1.488 8.192,1.488 6.016,0 11.158,-2.705 14.107,-7.421 l 0.271,-0.438 0.097,-0.194 c 2.287,0.161 4.71,0.287 7.025,0.365 1.146,0.033 2.299,0.05 3.438,0.05 0.871,0 1.714,-0.01 2.529,-0.029 0.949,1.799 1.923,3.065 3.071,4.076 3.109,2.803 7.062,4.284 11.444,4.284 5.769,0 12.029,-2.757 16.221,-6.786 0.565,0.259 1.137,0.498 1.715,0.707 -20,11.92 -29.422,36.458 -25.249,66.061 2.871,21.017 16.385,43.122 40.049,45.124 1.805,0.162 3.579,0.245 5.272,0.245 12.189,0 21.799,-4.122 29.3,-12.566 3.053,3.413 7.544,6.353 13.071,8.259 2.863,0.987 5.62,1.488 8.193,1.488 6.014,0 11.155,-2.704 14.104,-7.418 l 0.272,-0.439 0.097,-0.194 c 2.289,0.161 4.711,0.288 7.026,0.365 1.15,0.033 2.307,0.051 3.451,0.051 0.866,0 1.706,-0.01 2.516,-0.029 0.949,1.8 1.923,3.065 3.071,4.077 3.109,2.804 7.063,4.284 11.446,4.284 5.768,0 12.027,-2.756 16.219,-6.783 4.197,1.92 8.854,2.409 12.469,2.409 2.639,0 16.094,-0.397 21.85,-8.311 0.888,-1.243 1.688,-2.678 2.199,-5.773 2.582,0.943 5.538,1.434 8.776,1.434 2.13,0 7.63,-0.235 12.327,-2.418 0.518,3.345 1.337,5.299 2.657,7.055 3.367,4.551 8.929,7.057 15.676,7.057 2.869,0 6.382,-0.509 9.617,-1.761 0.409,0.464 0.836,0.907 1.293,1.309 3.976,3.546 10.088,5.061 20.391,5.061 4.066,0 7.976,-0.231 10.831,-0.401 0.854,-0.051 1.599,-0.095 2.158,-0.121 13.316,-0.56 20.465,-1.9 24.502,-4.999 7.293,8.336 17.941,13.605 29.318,13.604 1.418,0 2.853,-0.081 4.267,-0.24 11.889,-1.047 22.2,-7.909 28.31,-18.849 7.111,-12.733 7.511,-29.257 1.024,-42.118 -1.892,-3.861 -4.353,-7.546 -7.348,-11.016 4.591,-2.042 8.241,-5.586 10.142,-10.125 4.225,-9.713 0.665,-20.441 -3.763,-26.847 -1.655,-2.655 -3.728,-5.083 -6.088,-7.228 0.774,0.358 1.565,0.701 2.389,1.003 4.306,1.699 8.883,2.561 13.606,2.561 h 0.186 l 0.185,-0.007 c 4.598,-0.17 9.042,-1.152 13.217,-2.918 2.24,-0.761 4.428,-1.913 6.662,-3.505 1.97,-1.266 3.471,-2.383 4.841,-3.601 l 0.127,-0.115 c 1.752,-1.611 3.369,-3.383 4.874,-5.276 1.073,12.6 3.625,15.546 4.954,16.942 3.911,4.278 9.841,6.537 17.166,6.537 7.808,0 16.352,-2.608 20.778,-6.342 l 0.102,-0.087 c 4.913,-4.259 4.962,-9.203 4.418,-38.268 -0.076,-4.042 -0.154,-8.236 -0.207,-12.414 l -0.002,-0.166 c -0.124,-10.042 -0.251,-20.424 -0.251,-27.829 v -6.478 c 9.001,-0.181 12.912,-0.851 16.071,-3.281 l 0.093,-0.072 c 9.364,-7.381 7.129,-23.957 2.362,-30.128 z M 366.928,-26.641 c 0.284,0.297 0.557,0.601 0.852,0.892 -0.321,0.169 -0.624,0.363 -0.935,0.547 0.037,-0.476 0.063,-0.955 0.083,-1.439 z m -183.93,-58.618 c -9.506,0 -17.309,4.372 -20.859,11.667 -2.909,5.933 -6.14,16.23 -9.881,28.155 -0.766,2.443 -1.547,4.93 -2.347,7.445 -1.932,-3.524 -4.758,-5.748 -7.896,-7.145 4.611,-4.379 6.195,-9.342 6.662,-13.058 0.972,-7.737 -2.183,-16.174 -8.656,-23.146 l -0.119,-0.126 c -4.544,-4.727 -9.978,-7.958 -16.01,-9.589 0.452,-0.467 0.878,-0.964 1.266,-1.498 0.888,-1.243 1.688,-2.679 2.199,-5.774 2.581,0.942 5.536,1.433 8.772,1.433 2.131,0 7.633,-0.236 12.331,-2.419 0.519,3.345 1.338,5.299 2.657,7.055 3.367,4.551 8.928,7.055 15.674,7.055 4.767,0 11.317,-1.391 15.404,-5.292 l 0.372,-0.355 c 0.543,1.89 1.363,3.838 2.599,5.668 -0.714,-0.05 -1.437,-0.076 -2.168,-0.076 z m 19.938,8.712 c 2.792,0.305 5.776,0.476 8.836,0.476 2.083,0 5.08,-0.083 8.435,-0.422 -2.679,2.586 -4.518,5.953 -5.227,9.92 -1.198,5.999 -2.167,12.094 -2.91,18.218 -2.963,-10.854 -5.263,-19.525 -5.653,-21.001 -0.595,-2.658 -1.807,-5.075 -3.481,-7.191 z m 134.99,1.197 -0.981,-0.001 c -4.372,0 -8.252,0.01 -11.445,0.131 -6.896,0.199 -11.263,2.034 -14.101,4.712 -3.53,-5.809 -10.852,-9.107 -20.476,-9.107 -3.641,0 -12.695,0.531 -18.121,5.447 -2.475,2.261 -5.837,8.007 -8.979,14.085 -2.643,-5.191 -4.652,-9.091 -5.26,-10.268 -3.003,-6.807 -11.513,-10.76 -19.614,-11.628 7.162,-4.088 13.441,-10.456 17.805,-18.231 0.267,-0.475 0.521,-0.957 0.777,-1.439 4.898,8.955 12.477,15.988 22.997,18.146 2.357,0.538 4.785,0.81 7.219,0.81 3.237,0 6.413,-0.477 9.479,-1.428 7.062,-2.223 13.205,-6.282 18.255,-11.891 0.556,5.853 1.616,8.661 3.354,10.948 l 0.153,0.196 c 4.061,5.076 10.924,7.872 19.323,7.871 5.946,0 14.098,-1.481 19.143,-5.635 l 0.192,-0.163 c 1.538,-1.333 3.176,-2.752 4.235,-8.97 0.865,1.277 1.755,2.514 2.671,3.703 l 0.11,0.141 c 1.409,1.761 2.634,3.13 3.706,4.216 -1.515,1.45 -2.922,2.997 -4.167,4.648 -1.431,1.844 -2.678,3.798 -3.754,5.829 -4.545,-1.769 -11.564,-1.974 -22.521,-2.122 z m 72.825,-17.415 c 0.03,-0.239 0.061,-0.477 0.088,-0.726 0.48,0.483 0.983,0.947 1.488,1.41 -0.521,-0.239 -1.045,-0.47 -1.576,-0.684 z" />
		<path
   style="fill:#0aa2c7"
   inkscape:connector-curvature="0"
   id="path12"
   d="m 142.102,-35.515 c 2.543,11.705 1.778,25.064 -6.239,35.114 -6.362,8.142 -14.887,11.831 -27.61,10.684 C 90.188,8.754 79.63,-8.55 77.215,-26.235 c -2.924,-20.739 1.278,-45.675 21.763,-56.869 10.561,-5.851 24.174,-6.358 33.715,3.566 6.616,7.126 9.667,17.813 -0.002,24.046 -5.853,3.816 -14.25,2.543 -15.267,-4.327 -1.654,-5.98 -7.379,-2.545 -10.052,1.017 -5.471,7.124 -5.981,19.592 -5.219,27.608 0.763,7.634 3.306,15.268 9.031,15.522 3.563,0.128 5.853,-4.07 5.854,-8.014 -3.053,0 -5.089,-0.255 -5.471,-0.892 -1.272,-2.799 -2.034,-12.723 0.002,-16.285 1.018,-1.654 7.888,-1.78 14.631,-1.652 7.633,0.002 14.376,0.129 15.902,7 z" />
		<path
   style="fill:#0aa2c7"
   inkscape:connector-curvature="0"
   id="path14"
   d="m 216.02,2.408 c -1.909,3.689 -10.815,8.65 -15.649,4.197 -0.763,-0.636 -1.908,-3.309 -3.18,-7.125 -3.181,0.509 -7.761,0.635 -12.214,0.508 -3.817,-0.128 -7.506,-0.383 -10.178,-0.637 -1.272,-0.128 -2.29,-0.255 -3.181,-0.382 -1.527,3.563 -2.672,5.725 -2.799,5.979 -0.637,1.018 -3.181,4.325 -10.561,1.78 -7.379,-2.546 -11.195,-7.381 -10.686,-9.417 0,0 5.854,-18.066 11.709,-36.768 4.455,-13.995 8.655,-28.244 11.836,-34.731 4.581,-9.415 23.665,-7.249 25.573,2.166 0,0 4.705,17.813 9.792,36.006 4.96,18.067 10.302,36.388 9.538,38.424 z m -23.916,-21.123 c -1.653,-6.107 -2.797,-12.342 -4.451,-19.339 -2.672,6.742 -5.345,13.358 -8.399,20.61 1.527,-0.254 3.435,-0.381 5.089,-0.509 2.671,-0.38 5.343,-0.635 7.761,-0.762 z" />
		<path
   style="fill:#0aa2c7"
   inkscape:connector-curvature="0"
   id="path16"
   d="m 305.845,0.51 c -2.8,2.671 -12.723,4.197 -16.158,-0.511 -1.654,-2.164 -1.524,-16.922 -1.65,-30.663 -4.835,8.27 -9.417,16.157 -11.58,19.338 -1.527,2.417 -14.632,4.705 -18.321,-0.384 -2.544,-3.817 -6.36,-12.469 -10.303,-21.63 0.381,7.507 0.507,15.013 0.634,20.866 0.126,6.743 -0.256,11.45 -0.892,12.341 -3.054,4.198 -18.703,6.104 -24.173,1.27 -1.399,-1.4 -2.29,-6.362 -2.797,-13.614 -1.016,-18.576 0.386,-38.168 4.206,-57.252 2.037,-11.959 22.52,-7.25 24.682,-1.396 0,0 7.632,14.759 14.627,28.883 5.854,-13.867 13.362,-27.734 15.398,-29.516 4.072,-3.689 20.739,-4.578 23.665,2.039 2.796,12.468 5.462,61.705 2.662,70.229 z" />
		<path
   style="fill:#0aa2c7"
   inkscape:connector-curvature="0"
   id="path18"
   d="M 360.428,3.697 C 359.41,5.733 350.249,6.75 341.216,7.13 335.745,7.384 319.078,8.909 314.881,5.091 313.99,4.328 312.845,2.546 312.718,0.002 c -1.524,-22.138 0.642,-44.911 2.679,-58.016 1.273,-9.288 1.274,-11.959 10.434,-12.212 3.308,-0.127 7.634,-0.126 11.959,-0.125 9.415,0.128 18.957,0.511 19.593,1.91 1.271,2.799 1.652,12.723 -1.401,16.031 -1.4,1.654 -8.779,1.271 -16.794,0.38 0.127,2.671 0.253,5.853 0.38,9.16 6.998,-1.017 15.395,-1.779 16.031,-0.38 1.145,2.672 2.161,12.596 0.507,16.158 -1.018,2.036 -9.288,2.035 -16.158,1.652 0,2.417 0,4.708 -10e-4,14.631 8.779,-1.398 17.557,-2.67 18.575,-1.397 1.653,2.417 4.197,12.214 1.906,15.903 z" />
		<path
   style="fill:#0aa2c7"
   inkscape:connector-curvature="0"
   id="path20"
   d="m 391.735,-61.948 c -1.146,4.453 3.18,6.489 6.36,8.524 0.891,0.51 1.908,1.273 2.799,1.909 1.018,0.763 2.035,1.4 2.926,2.163 2.036,1.527 4.071,3.054 5.852,4.835 3.944,3.563 7.76,8.016 10.431,13.487 9.285,18.322 -0.005,44.784 -21.38,46.563 -15.14,1.779 -29.007,-9.037 -31.804,-23.668 -0.636,-2.926 -0.381,-5.726 0.383,-7.888 2.545,-7.761 13.869,-9.668 19.084,-4.196 1.018,1.145 2.035,2.545 2.035,4.708 -10e-4,6.87 6.997,5.599 7.761,0.892 1.146,-8.27 -12.594,-15.905 -17.428,-19.85 -5.597,-4.199 -9.795,-9.543 -11.703,-15.905 -2.925,-9.67 -0.761,-20.102 5.092,-27.608 3.436,-4.58 8.271,-8.015 13.105,-9.922 4.581,-2.035 9.797,-2.925 15.014,-2.288 7.888,0.764 15.521,5.727 19.464,12.216 3.435,4.835 5.342,11.96 2.924,17.43 -2.292,5.598 -9.925,7.124 -14.632,5.215 -3.18,-1.146 -5.979,-3.818 -6.233,-7.507 -1.652,-5.852 -8.65,-3.69 -10.05,0.89 z" />
		<path
   style="fill:#ee3a75"
   inkscape:connector-curvature="0"
   id="path22"
   d="m 10.782,-172.579 c 2.417,21.375 6.743,63.232 -13.741,75.828 -19.593,12.341 -47.202,-4.326 -46.056,-29.771 -0.255,-6.998 1.018,-12.214 2.29,-16.031 4.326,-13.359 25.318,-8.779 25.827,2.672 0,0.763 0.254,2.672 -0.382,5.216 -4.198,17.176 7.379,23.664 9.669,6.361 1.781,-16.158 -1.272,-34.097 -1.272,-49.11 0.764,-12.087 20.484,-13.613 22.392,-3.435 0.509,2.799 0.891,5.471 1.273,8.27 z" />
		<path
   style="fill:#ee3a75"
   inkscape:connector-curvature="0"
   id="path24"
   d="m 85.466,-100.823 c -1.908,3.69 -10.814,8.652 -15.649,4.199 -0.763,-0.636 -1.908,-3.308 -3.181,-7.125 -3.181,0.509 -7.761,0.636 -12.214,0.509 -3.817,-0.127 -7.506,-0.382 -10.178,-0.636 -1.272,-0.127 -2.29,-0.254 -3.181,-0.382 -1.527,3.563 -2.672,5.725 -2.799,5.98 -0.636,1.018 -3.181,4.326 -10.56,1.781 -7.379,-2.545 -11.196,-7.379 -10.687,-9.415 0,0 5.853,-18.066 11.705,-36.769 4.453,-13.995 8.652,-28.245 11.833,-34.733 4.58,-9.415 23.664,-7.252 25.573,2.163 0,0 4.708,17.812 9.796,36.005 4.962,18.067 10.305,36.388 9.542,38.423 z m -23.919,-21.119 c -1.654,-6.107 -2.799,-12.341 -4.453,-19.338 -2.672,6.743 -5.344,13.359 -8.397,20.611 1.527,-0.254 3.435,-0.382 5.089,-0.509 2.672,-0.382 5.344,-0.637 7.761,-0.764 z" />
		<path
   style="fill:#ee3a75"
   inkscape:connector-curvature="0"
   id="path26"
   d="m 175.29,-102.731 c -2.799,2.672 -12.723,4.198 -16.158,-0.509 -1.654,-2.163 -1.526,-16.921 -1.654,-30.662 -4.834,8.27 -9.415,16.158 -11.578,19.339 -1.527,2.417 -14.631,4.707 -18.321,-0.382 -2.544,-3.817 -6.361,-12.468 -10.306,-21.629 0.382,7.507 0.509,15.013 0.636,20.866 0.127,6.743 -0.254,11.45 -0.891,12.341 -3.053,4.199 -18.702,6.107 -24.173,1.272 -1.399,-1.399 -2.29,-6.361 -2.799,-13.613 -1.018,-18.576 0.382,-38.168 4.199,-57.253 2.035,-11.959 22.519,-7.252 24.682,-1.399 0,0 7.633,14.758 14.631,28.881 5.853,-13.868 13.359,-27.736 15.395,-29.517 4.071,-3.689 20.738,-4.58 23.665,2.036 2.799,12.468 5.471,61.705 2.672,70.229 z" />
		<path
   style="fill:#ff9900"
   inkscape:connector-curvature="0"
   id="path28"
   d="m 248.038,-110.11 c -4.071,7.252 -10.941,13.995 -19.211,16.794 -7.761,2.544 -19.847,2.799 -27.99,1.399 -7.761,-1.272 -9.161,-5.344 -9.415,-12.723 -0.763,-20.102 0.509,-41.858 0.382,-61.451 -0.127,-13.104 0.254,-21.247 14.504,-22.901 1.654,-0.127 3.562,-0.255 6.107,-0.382 39.822,-0.762 54.071,46.439 35.623,79.264 z m -31.68,-55.726 c 1.272,15.14 2.29,30.407 2.672,46.438 11.323,-9.669 15.013,-39.822 -2.672,-46.438 z" />
		<path
   style="fill:#ff9900"
   inkscape:connector-curvature="0"
   id="path30"
   d="m 318.524,-128.685 c -3.181,12.723 -10.56,25.7 -24.301,30.026 -3.689,1.145 -7.761,1.272 -11.578,0.382 -15.267,-3.054 -22.01,-22.011 -22.01,-36.642 0,-9.797 1.399,-21.12 6.87,-29.771 7.761,-12.977 23.41,-16.921 35.497,-9.924 14.377,8.524 19.084,29.898 15.522,45.929 z m -24.173,-26.082 c -7.888,-13.104 -11.959,12.723 -11.832,14.886 0,15.649 11.323,16.921 14.25,2.926 1.271,-6.489 -0.382,-12.978 -2.418,-17.812 z" />
		<path
   style="fill:#ff9900"
   inkscape:connector-curvature="0"
   id="path32"
   d="m 403.134,-177.159 c 0,0 -0.382,4.962 -0.636,12.214 -0.509,7.506 -0.891,17.176 -1.018,27.227 -0.254,9.924 -0.127,19.848 -0.254,27.736 0,7.634 -0.254,13.104 -1.272,13.995 -3.435,2.926 -15.395,5.853 -21.883,2.417 -1.527,-0.891 -3.563,-3.053 -5.598,-5.598 -8.143,-10.56 -14.25,-26.082 -19.975,-38.805 0.891,20.738 0.509,40.967 -1.4,42.622 -4.326,3.562 -19.211,5.598 -24.3,-0.764 -2.417,-3.181 -1.908,-24.3 -1.399,-44.784 0.254,-10.178 0.636,-20.356 0.763,-27.99 0.254,-7.633 0.382,-12.723 0.509,-13.104 0.891,-8.397 19.848,-8.27 23.283,-3.436 0,0 2.291,4.962 5.726,12.468 3.435,7.379 8.143,17.303 13.104,27.354 1.781,3.563 3.689,7.125 5.343,10.688 0.127,-1.527 0.254,-3.054 0.382,-4.453 1.018,-10.178 2.417,-20.102 3.817,-27.481 1.272,-7.379 2.417,-12.341 2.417,-12.595 0.509,-1.272 2.163,-5.216 9.923,-4.453 7.76,0.635 12.722,4.706 12.468,6.742 z" />
		<path
   style="fill:#ff9900"
   inkscape:connector-curvature="0"
   id="path34"
   d="m 432.144,-155.785 c -0.255,0.891 -0.382,1.909 -0.509,3.308 -0.254,2.799 -0.763,6.87 -0.636,11.196 0,22.646 11.832,16.667 11.832,-1.527 0.127,-4.326 -0.382,-7.888 -0.763,-10.433 -0.509,-2.672 -0.636,-4.326 -0.509,-4.962 2.29,-10.688 23.41,-11.959 26.718,-0.382 1.527,4.453 2.545,10.56 2.417,17.558 -0.382,13.868 -4.708,27.608 -14.25,36.387 -1.145,1.018 -2.417,1.908 -3.817,2.799 -1.399,1.018 -2.926,1.908 -4.58,2.417 -3.181,1.399 -6.616,2.163 -10.051,2.29 -3.563,0 -6.871,-0.636 -10.051,-1.909 -3.181,-1.145 -6.234,-3.181 -8.524,-5.089 -4.707,-4.199 -7.506,-9.033 -9.16,-13.486 -0.891,-2.163 -1.527,-4.198 -2.036,-6.361 -0.509,-1.908 -0.764,-3.817 -1.018,-5.853 -0.509,-3.689 -0.509,-7.125 -0.381,-10.305 0.254,-6.362 1.018,-11.196 1.781,-14.631 0.763,-3.435 1.399,-5.216 1.399,-5.471 0.509,-1.909 3.181,-7.761 10.814,-6.361 7.633,1.272 11.959,6.997 11.45,9.669 0.001,0.001 0.001,0.383 -0.126,1.146 z" />
		<path
   style="fill:#ff9900"
   inkscape:connector-curvature="0"
   id="path36"
   d="m 525.022,-181.867 c -1.654,1.272 -10.051,1.272 -20.102,1.272 0.127,0.127 0.127,0.381 0.127,0.509 0,0 0,8.143 0,15.903 0,7.506 0.127,17.812 0.254,28.118 0.254,20.483 1.145,41.349 -0.763,43.003 -4.071,3.435 -18.83,6.616 -24.173,0.636 -2.799,-2.926 -3.308,-24.046 -2.036,-44.53 0.891,-13.359 2.417,-29.899 4.071,-43.639 -4.071,0 -8.906,0.763 -12.977,0.127 -0.764,0 -3.69,-0.509 -4.581,-5.598 -0.763,-5.089 1.145,-9.033 2.545,-9.288 0,0 3.435,-0.509 8.778,-1.145 9.161,-1.908 46.947,-4.326 49.492,-1.526 2.164,2.8 3.563,12.85 -0.635,16.158 z" />
	</g>
</svg>